<?xml version="1.0" encoding="utf-8"?>
<svg class="logout-icon" width="800px" height="800px" viewBox="0 0 24 24" fill="none" xmlns="http://www.w3.org/2000/svg">
    <style>
        .path1 { stroke: #ffffff; stroke-width: 2; stroke-linecap: round; stroke-linejoin: round; }
        .path2 { stroke: #ffffff; stroke-width: 2; stroke-linecap: round; stroke-linejoin: round; }
        .path3 { stroke: #ffffff; stroke-width: 2; stroke-linecap: round; stroke-linejoin: round; }
        .path4 { stroke: #ffffff; stroke-width: 2; stroke-linecap: round; }
        .path5 { stroke: #ffffff; stroke-width: 2; stroke-linecap: round; }
    </style>
    <path class="path1" d="M15 12L2 12"/>
    <path class="path2" d="M2 12L5.5 9"/>
    <path class="path3" d="M2 12L5.5 15"/>
    <path class="path4" d="M9.00195 7C9.01406 4.82497 9.11051 3.64706 9.87889 2.87868C10.7576 2 12.1718 2 15.0002 2L16.0002 2C18.8286 2 20.2429 2 21.1215 2.87868C22.0002 3.75736 22.0002 5.17157 22.0002 8L22.0002 16C22.0002 18.8284 22.0002 20.2426 21.1215 21.1213C20.3531 21.8897 19.1752 21.9862 17 21.9983"/>
    <path class="path5" d="M9.00195 17C9.01406 19.175 9.11051 20.3529 9.87889 21.1213C10.5202 21.7626 11.4467 21.9359 13 21.9827"/>
</svg>