<svg width="300" height="156" xmlns="http://www.w3.org/2000/svg">
 <g>
  <title>Layer 1</title>
  <path stroke="null" id="svg_22" d="m67.28846,-9.88277c-5.39157,10.12515 -2.84869,10.0819 -3.44738,11.96236l-20.04654,7.5389c0.38098,-8.96148 -1.4181,-14.65552 0.3018,-16.4675l23.19213,-3.03377l0,0l-0.00001,0.00001z" opacity="undefined" stroke-width="2" fill="#e5e5e5" transform="rotate(-90 55.3134 -0.132145)"/>
  <path stroke="null" id="svg_38" d="m113.54281,9.95774l9.9366,5.32368c2.86417,4.76077 4.2257,10.6754 4.49441,16.20541c-6.07188,0 -9.71409,1.87758 -15.15105,-0.50337l-1.97175,-21.02573l2.6918,0.00001l-0.00001,0z" opacity="undefined" stroke-width="2" fill="#e5e5e5"/>
  <path stroke="#333333" id="svg_2" d="m128.42139,31.97668l0,-5.01546" opacity="undefined" stroke-linecap="undefined" stroke-linejoin="undefined" stroke-width="2" fill="none"/>
  <path id="svg_41" d="m48.13008,9.55887l65.25437,0.29266l-0.06564,15.51132c-21.72959,-2.34133 -56.96392,3.75249 -61.04074,-7.97445l-4.14798,-7.82953l0,0.00001l0,-0.00001l-0.00001,0z" opacity="undefined" stroke-width="2" fill="#e5e5e5" stroke="null"/>
  <line stroke-width="2" stroke-linecap="undefined" stroke-linejoin="undefined" id="svg_12" y2="24.725" x2="107.16137" y1="24.725" x1="68.41368" fill="none" stroke="#333333"/>
  <line stroke-width="2" stroke-linecap="undefined" stroke-linejoin="undefined" id="svg_14" y2="9.49965" x2="108.88605" y1="9.49965" x1="68.41423" fill="none" stroke="#333333"/>
  <path stroke="#333333" id="svg_19" d="m106.37083,24.70588c5.4042,0.03158 5.54773,0.86129 5.52411,7.656" opacity="undefined" stroke-linecap="undefined" stroke-linejoin="undefined" stroke-width="2" fill="none"/>
  <path stroke="#333333" id="svg_25" d="m108.04157,9.52077c12.81103,0.46458 20.10217,7.32342 20.37842,17.72194" opacity="undefined" stroke-linecap="undefined" stroke-linejoin="undefined" stroke-width="2" fill="none"/>
  <path stroke="#333333" id="svg_27" d="m68.52789,24.86672c-15.12523,-0.54741 -22.14232,-11.70138 -21.9205,-25.0274" opacity="undefined" stroke-linecap="undefined" stroke-linejoin="undefined" stroke-width="2" fill="none"/>
  <path stroke="#333333" id="svg_28" d="m68.72104,9.45544c-7.08935,0.06503 -6.98641,-5.1266 -6.93997,-9.34811" opacity="undefined" stroke-linecap="undefined" stroke-linejoin="undefined" stroke-width="2" fill="none"/>
  <path stroke="null" id="svg_40" d="m34.41789,154.66346l-33.41789,-6.04651" opacity="NaN" stroke-width="2" fill="none"/>
  <path transform="rotate(-90 106.901 29.852)" stroke="#333333" filter="url(#svg_46_blur)" id="svg_17" d="m106.90164,29.85204" opacity="undefined" stroke-linecap="undefined" stroke-linejoin="undefined" stroke-width="3" fill="none"/>
  <g id="svg_18">
   <g id="svg_1">
    <path transform="rotate(-90 120.837 68.4289)" stroke="null" id="svg_53" d="m158.0805,14.34544c-1.42677,109.67506 1.7941,93.62467 0.06361,106.81527l-73.67164,1.54432c1.10121,-35.88174 -4.29855,-95.84197 0.67277,-108.55221l72.93526,0.19261l0,0.00001z" opacity="undefined" stroke-width="2" fill="#e5e5e5"/>
    <path transform="rotate(-90 169.949 100.964)" stroke="#333333" id="svg_43" d="m174.89973,105.62979c-10.1686,0.2179 -9.7949,0.3241 -9.90245,-9.39029" opacity="undefined" stroke-linecap="undefined" stroke-linejoin="undefined" stroke-width="3" fill="none"/>
    <line transform="rotate(-90 118.529 105.919)" stroke="#333333" stroke-width="3" stroke-linecap="undefined" stroke-linejoin="undefined" id="svg_44" y2="58.77985" x2="118.52849" y1="153.05661" x1="118.52848" fill="none"/>
    <path transform="rotate(-90 68.7839 101.587)" stroke="#333333" filter="url(#svg_46_blur)" id="svg_46" d="m64.44675,104.28568c-0.21946,-6.27473 2.29097,-5.29221 8.68751,-5.39898" opacity="undefined" stroke-linecap="undefined" stroke-linejoin="undefined" stroke-width="3" fill="none"/>
    <path transform="rotate(-90 69.1494 35.2333)" stroke="#333333" filter="url(#svg_46_blur)" id="svg_47" d="m73.6688,38.2633c0.03613,-6.72674 0.68847,-6.00822 -9.05995,-6.05821" opacity="undefined" stroke-linecap="undefined" stroke-linejoin="undefined" stroke-width="3" fill="none"/>
    <line transform="rotate(-90 66.0882 68.8473)" stroke="#333333" stroke-width="3" stroke-linecap="undefined" stroke-linejoin="undefined" id="svg_48" y2="68.84733" x2="95.47248" y1="68.84733" x1="36.70404" fill="none"/>
    <line transform="rotate(-90 174.627 70.2329)" stroke="#333333" stroke-width="3" stroke-linecap="undefined" stroke-linejoin="undefined" id="svg_49" y2="70.23304" x2="204.01117" y1="70.23304" x1="145.24273" fill="none"/>
    <path transform="rotate(-90 171.651 35.7822)" stroke="#333333" filter="url(#svg_46_blur)" id="svg_50" d="m166.25028,38.73493c6.8105,-0.30614 10.85003,0.71813 10.80126,-5.90534" opacity="undefined" stroke-linecap="undefined" stroke-linejoin="undefined" stroke-width="3" fill="none"/>
    <path transform="rotate(-90 144.288 30.7669)" stroke="#333333" filter="url(#svg_46_blur)" id="svg_51" d="m144.28754,30.76704" opacity="undefined" stroke-linecap="undefined" stroke-linejoin="undefined" stroke-width="3" fill="none"/>
    <line stroke="#333333" stroke-width="3" stroke-linecap="undefined" stroke-linejoin="undefined" id="svg_3" y2="30.74586" x2="149.90861" y1="30.74586" x1="144.21708" fill="none"/>
    <line stroke="#333333" stroke-width="3" stroke-linecap="undefined" stroke-linejoin="undefined" id="svg_4" y2="30.48945" x2="169.90861" y1="30.48945" x1="164.21708" fill="none"/>
   </g>
   <path transform="rotate(-90 120.633 67.8405)" stroke="null" id="svg_6" d="m157.87642,13.75707c-1.42677,109.67506 1.7941,93.62467 0.06361,106.81527l-73.67164,1.54432c1.10121,-35.88174 -4.29855,-95.84197 0.67277,-108.55221l72.93526,0.19261l0,0.00001z" opacity="undefined" stroke-width="2" fill="#e5e5e5"/>
   <path transform="rotate(-90 169.744 100.376)" stroke="#333333" id="svg_7" d="m174.69565,105.04142c-10.1686,0.2179 -9.7949,0.3241 -9.90245,-9.39029" opacity="undefined" stroke-linecap="undefined" stroke-linejoin="undefined" stroke-width="3" fill="none"/>
   <line transform="rotate(-90 118.324 105.331)" stroke="#333333" stroke-width="3" stroke-linecap="undefined" stroke-linejoin="undefined" id="svg_8" y2="58.19148" x2="118.32441" y1="152.46824" x1="118.3244" fill="none"/>
   <line transform="rotate(-90 92.2731 30.1537)" stroke="#333333" stroke-width="3" stroke-linecap="undefined" stroke-linejoin="undefined" id="svg_9" y2="9.5205" x2="92.27309" y1="50.78697" x1="92.27308" fill="none"/>
   <path transform="rotate(-90 68.5799 100.999)" stroke="#333333" filter="url(#svg_46_blur)" id="svg_10" d="m64.24267,103.69731c-0.21946,-6.27473 2.29097,-5.29221 8.68751,-5.39898" opacity="undefined" stroke-linecap="undefined" stroke-linejoin="undefined" stroke-width="3" fill="none"/>
   <path transform="rotate(-90 68.9454 34.6449)" stroke="#333333" filter="url(#svg_46_blur)" id="svg_11" d="m73.46472,37.67493c0.03613,-6.72674 0.68847,-6.00822 -9.05995,-6.05821" opacity="undefined" stroke-linecap="undefined" stroke-linejoin="undefined" stroke-width="3" fill="none"/>
   <line transform="rotate(-90 65.8842 68.2589)" stroke="#333333" stroke-width="3" stroke-linecap="undefined" stroke-linejoin="undefined" id="svg_13" y2="68.25897" x2="95.2684" y1="68.25897" x1="36.49996" fill="none"/>
   <line transform="rotate(-90 174.423 69.6446)" stroke="#333333" stroke-width="3" stroke-linecap="undefined" stroke-linejoin="undefined" id="svg_15" y2="69.64467" x2="203.80709" y1="69.64467" x1="145.03865" fill="none"/>
   <path transform="rotate(-90 171.447 35.1938)" stroke="#333333" filter="url(#svg_46_blur)" id="svg_16" d="m166.04621,38.14656c6.8105,-0.30614 10.85003,0.71813 10.80126,-5.90534" opacity="undefined" stroke-linecap="undefined" stroke-linejoin="undefined" stroke-width="3" fill="none"/>
   <line stroke="#333333" stroke-width="3" stroke-linecap="undefined" stroke-linejoin="undefined" id="svg_20" y2="29.86156" x2="168.71483" y1="29.86156" x1="127.51915" fill="none"/>
  </g>
 </g>

</svg>