<svg width="350" height="155" xmlns="http://www.w3.org/2000/svg">
 <g>
  <title>Layer 1</title>
  <path stroke="null" id="svg_53" d="m78.44783,3.04279c-1.42677,109.67506 1.7941,93.62467 0.06361,106.81527l-73.67164,1.54432c1.10121,-35.88174 -4.29855,-95.84197 0.67277,-108.55221l72.93526,0.19261l0,0.00001z" opacity="undefined" stroke-width="2" fill="#4c5059"/>
  <path stroke="null" id="svg_42" d="m101.09309,-0.25759c-0.28567,134.77963 0.58254,131.96992 4.42344,133.29379l-18.2638,-0.13074c-1.19363,-43.58223 0.26894,-117.93022 -0.53172,-132.92709l14.37207,-0.23597l0.00001,0.00001z" opacity="undefined" stroke-width="2" fill="#4c5059"/>
  <path stroke="null" id="svg_38" d="m239.86162,133.75837l9.9366,5.32368c2.86417,4.76077 4.2257,10.6754 4.49441,16.20541c-6.07188,0 -9.71409,1.87758 -15.15105,-0.50337l-1.97175,-21.02573l2.6918,0.00001l-0.00001,0z" opacity="undefined" stroke-width="2" fill="#4c5059"/>
  <path stroke="#868f98" id="svg_2" d="m253.36088,155.08766l0,-5.01546" opacity="undefined" stroke-linecap="undefined" stroke-linejoin="undefined" stroke-width="2" fill="none"/>
  <path stroke="null" id="svg_41" d="m87.89716,132.66985l150.7716,0.29266l-0.15166,15.51132c-50.20667,-2.34133 -141.97386,4.09732 -145.01958,-5.56066l-5.60035,-10.24332l-0.00001,0.00001l0,-0.00001z" opacity="undefined" stroke-width="2" fill="#4c5059"/>
  <line stroke="#868f98" stroke-width="2" stroke-linecap="undefined" stroke-linejoin="undefined" id="svg_12" y2="147.83598" x2="234.16983" y1="147.83598" x1="108.18076" fill="none"/>
  <line stroke="#868f98" stroke-width="2" stroke-linecap="undefined" stroke-linejoin="undefined" id="svg_14" y2="132.61063" x2="234.17037" y1="132.61063" x1="108.18131" fill="none"/>
  <path stroke="#868f98" id="svg_19" d="m234.06895,147.81686c5.4042,0.03158 5.54773,0.86129 5.52411,7.656" opacity="undefined" stroke-linecap="undefined" stroke-linejoin="undefined" stroke-width="2" fill="none"/>
  <path stroke="#868f98" id="svg_25" d="m232.98107,132.63175c12.81103,0.46458 20.10217,7.32342 20.37842,17.72194" opacity="undefined" stroke-linecap="undefined" stroke-linejoin="undefined" stroke-width="2" fill="none"/>
  <path stroke="#868f98" id="svg_27" d="m108.29497,147.9777c-15.12523,-0.54741 -22.14232,-11.70138 -21.9205,-25.0274" opacity="undefined" stroke-linecap="undefined" stroke-linejoin="undefined" stroke-width="2" fill="none"/>
  <path stroke="#868f98" id="svg_28" d="m108.48812,132.56642c-7.08935,0.06503 -6.98641,-5.1266 -6.93997,-9.34811" opacity="undefined" stroke-linecap="undefined" stroke-linejoin="undefined" stroke-width="2" fill="none"/>
  <path stroke="null" id="svg_54" d="m51.23637,83.71044c42.5446,0.37502 41.57674,0.75001 41.99464,-4.29221l0.03967,23.63949c-13.91906,-2.80894 -37.32773,1.43312 -41.95982,-0.48011l-0.07448,-18.86718l0,0.00001l-0.00001,0z" opacity="undefined" stroke-width="2" fill="#4c5059"/>
  <path id="svg_29" d="m87.03623,85.06786l0.00001,-85.72648" opacity="undefined" stroke-linecap="undefined" stroke-linejoin="undefined" stroke-width="2" stroke="#868f98" fill="none"/>
  <line stroke="#868f98" stroke-width="2" stroke-linecap="undefined" stroke-linejoin="undefined" id="svg_30" y2="-0.47762" x2="101.63656" y1="123.60948" x1="101.63655" fill="none"/>
  <line stroke="#868f98" stroke-width="2" stroke-linecap="undefined" stroke-linejoin="undefined" id="svg_32" y2="101.52428" x2="86.33255" y1="123.49519" x1="86.33255" fill="none"/>
  <path stroke="null" id="svg_40" d="m45.15769,141.74252l-33.41789,-6.04651" opacity="NaN" stroke-width="2" fill="none"/>
  <path stroke="#868f98" id="svg_43" d="m13.62113,110.64691c-10.1686,0.2179 -9.7949,0.3241 -9.90245,-9.39029" opacity="undefined" stroke-linecap="undefined" stroke-linejoin="undefined" stroke-width="3" fill="none"/>
  <line stroke="#868f98" stroke-width="3" stroke-linecap="undefined" stroke-linejoin="undefined" id="svg_44" y2="7.42252" x2="3.71547" y1="101.69928" x1="3.71546" fill="none"/>
  <line stroke="#868f98" stroke-width="3" stroke-linecap="undefined" stroke-linejoin="undefined" id="svg_45" y2="7.87585" x2="78.8921" y1="80.44479" x1="78.89209" fill="none"/>
  <path stroke="#868f98" filter="url(#svg_46_blur)" id="svg_46" d="m3.71034,7.51583c-0.21946,-6.27473 2.29097,-5.29221 8.68751,-5.39898" opacity="undefined" stroke-linecap="undefined" stroke-linejoin="undefined" stroke-width="3" fill="none"/>
  <path stroke="#868f98" filter="url(#svg_46_blur)" id="svg_47" d="m78.91971,8.2118c0.03613,-6.72674 0.68847,-6.00822 -9.05995,-6.05821" opacity="undefined" stroke-linecap="undefined" stroke-linejoin="undefined" stroke-width="3" fill="none"/>
  <line stroke="#868f98" stroke-width="3" stroke-linecap="undefined" stroke-linejoin="undefined" id="svg_48" y2="2.12069" x2="70.17058" y1="2.12069" x1="11.40214" fill="none"/>
  <line stroke="#868f98" stroke-width="3" stroke-linecap="undefined" stroke-linejoin="undefined" id="svg_49" y2="110.65937" x2="68.78488" y1="110.65937" x1="10.01644" fill="none"/>
  <path stroke="#868f98" filter="url(#svg_46_blur)" id="svg_50" d="m68.4506,110.63622c6.8105,-0.30614 10.85003,0.71813 10.80126,-5.90534" opacity="undefined" stroke-linecap="undefined" stroke-linejoin="undefined" stroke-width="3" fill="none"/>
  <path stroke="#868f98" filter="url(#svg_46_blur)" id="svg_51" d="m86.36494,83.6478c-8.0951,-0.02031 -7.52085,1.12895 -7.49827,-3.32784" opacity="undefined" stroke-linecap="undefined" stroke-linejoin="undefined" stroke-width="3" fill="none"/>
  <path stroke="#868f98" filter="url(#svg_46_blur)" id="svg_52" d="m85.38633,102.99248c-7.04616,-0.0004 -6.23985,-0.1991 -6.28862,2.04399" opacity="undefined" stroke-linecap="undefined" stroke-linejoin="undefined" stroke-width="3" fill="none"/>
 </g>

</svg>