<svg width="1140" height="1024" xmlns="http://www.w3.org/2000/svg">
 <g id="Layer_1">
  <title>Layer 1</title>
  <path id="svg_3" d="m-93.07378,494.79483c-41.59745,-245.87718 692.42607,-242.48719 700.1481,-515.6332" stroke-linecap="undefined" stroke-linejoin="undefined" stroke-width="99" stroke="#48607c" fill="#f6cce0" fill-opacity="0" transform="rotate(1.46385 256.149 236.978)"/>
  <rect fill="#f6cce0" stroke-width="99" x="45.99998" y="47.5" width="470.00001" height="57" id="svg_1" stroke="#48607c"/>
  <rect fill="#48607c" stroke-width="99" x="39.66665" y="144.5" width="278.00001" height="39" id="svg_2" stroke="#48607c"/>
  <rect fill="#48607c" stroke-width="99" x="26.99999" y="209.5" width="148" height="39" id="svg_4" stroke="#48607c"/>
  <g id="svg_33">
   <path id="svg_16" d="m678.90273,1030.30411c-40.39585,-303.09817 798.31202,-144.19799 815.12982,-479.2194" stroke-linecap="undefined" stroke-linejoin="undefined" stroke-width="99" fill="#48607c" fill-opacity="0" stroke="#48607c" transform="rotate(-223 1085.76 790.694)"/>
   <path fill="#48607c" stroke-width="99" opacity="undefined" d="m887.91091,889.85365l553.18992,0l0,69.98552l-553.18992,0l0,-69.98552z" id="svg_17" stroke="#48607c" transform="rotate(-223 1164.51 924.846)"/>
   <path fill="#48607c" stroke-width="99" opacity="undefined" d="m946.4018,790.60427l402.70745,0l0,6.35408l-402.70745,0l0,-6.35408z" id="svg_18" stroke="#48607c" transform="rotate(-223 1147.76 793.781)"/>
   <rect fill="#48607c" stroke-width="99" x="1069.56813" y="715.86282" width="227.80305" height="4.41315" id="svg_19" stroke="#48607c" transform="rotate(-223 1183.47 718.069)"/>
   <rect fill="#48607c" stroke-width="99" x="1197.26315" y="624.45286" width="43.22194" height="4.41315" id="svg_25" stroke="#48607c" transform="rotate(-223 1218.87 626.659)"/>
  </g>
  <path fill="#5d898b" stroke-width="99" opacity="undefined" d="m1094.98577,777.42177c-4.41989,0 -8,-3.35635 -8,-7.5c0,-4.14364 3.58011,-7.5 8,-7.5c4.41989,0 8,3.35636 8,7.5c0,4.14365 -3.58011,7.5 -8,7.5z" id="svg_30" stroke="null"/>
  <path fill="#5b768f" stroke-width="99" opacity="undefined" d="m1089.98577,767.42177c-6.35359,0 -11.5,-5.14641 -11.5,-11.5c0,-6.35359 5.14641,-11.5 11.5,-11.5c6.3536,0 11.5,5.14641 11.5,11.5c0,6.35359 -5.1464,11.5 -11.5,11.5z" id="svg_31" stroke="null"/>
  <path fill="#5d898b" stroke-width="99" opacity="undefined" d="m145.93119,277.51457c-4.41989,0 -8,-3.35635 -8,-7.5c0,-4.14365 3.58011,-7.5 8,-7.5c4.41989,0 8,3.35635 8,7.5c0,4.14365 -3.58011,7.5 -8,7.5z" id="svg_12" stroke="null"/>
  <path fill="#5b768f" stroke-width="99" opacity="undefined" d="m140.93119,268.02739c-6.35359,0 -11.5,-5.14641 -11.5,-11.5c0,-6.35359 5.14641,-11.5 11.5,-11.5c6.35359,0 11.5,5.14641 11.5,11.5c0,6.35359 -5.14641,11.5 -11.5,11.5z" id="svg_11" stroke="null"/>
  <g id="svg_26">
   <rect stroke="null" fill="#868f98" stroke-width="99" x="248.85146" y="303.11338" width="3.30781" height="78.45813" id="svg_46"/>
   <path stroke="null" id="svg_5" d="m261.08231,307.34831c-5.54721,0 -10.04046,-1.58414 -10.04046,-3.53987c0,-1.95573 4.49324,-3.53987 10.04046,-3.53987c5.54721,0 10.04046,1.58414 10.04046,3.53987c0,1.95573 -4.49324,3.53987 -10.04046,3.53987z" opacity="undefined" stroke-width="99" fill="#f9f9c2"/>
   <g id="svg_56">
    <g id="svg_15">
     <title>Layer 1</title>
     <g id="svg_20">
      <g id="svg_21" stroke="null">
       <ellipse fill="#ffffff" stroke-width="99" cx="268.18859" cy="381.82776" id="svg_24" rx="25.0259" ry="9.6545" fill-opacity="0.8" stroke="null"/>
       <path fill="#ffffff" fill-opacity="0.8" stroke-width="99" opacity="undefined" d="m293.05173,381.99902c0,5.52448 -11.19938,9.9993 -25.02584,9.9993c-13.82644,0 -25.02589,-4.47482 -25.02589,-9.9993l50.05173,0z" id="svg_23" stroke="null"/>
       <path fill="#ffffff" stroke-width="99" fill-opacity="0.8" d="m243.39186,382.35497l9.38471,-79.30479l15.64119,0l25.02588,79.30479l-50.05178,0z" id="svg_22" stroke="null"/>
      </g>
     </g>
    </g>
   </g>
   <ellipse stroke="null" fill="#868f98" stroke-width="99" cx="261.10187" cy="302.97998" id="svg_47" rx="12.25042" ry="2.97998"/>
  </g>
  <g id="svg_41">
   <rect stroke="null" fill="#868f98" stroke-width="99" x="148.85145" y="553.11338" width="3.30781" height="78.45813" id="svg_27"/>
   <path stroke="null" id="svg_28" d="m161.0823,557.34831c-5.54721,0 -10.04046,-1.58414 -10.04046,-3.53987c0,-1.95573 4.49324,-3.53987 10.04046,-3.53987c5.54721,0 10.04046,1.58414 10.04046,3.53987c0,1.95573 -4.49324,3.53987 -10.04046,3.53987z" opacity="undefined" stroke-width="99" fill="#f9f9c2"/>
   <g id="svg_39">
    <g id="svg_38">
     <title id="svg_29">Layer 1</title>
     <g id="svg_37">
      <g id="svg_36" stroke="null">
       <ellipse fill="#ffffff" stroke-width="99" cx="168.18858" cy="631.82776" id="svg_32" rx="25.0259" ry="9.6545" fill-opacity="0.8" stroke="null"/>
       <path fill="#ffffff" fill-opacity="0.8" stroke-width="99" opacity="undefined" d="m193.05172,631.99902c0,5.52448 -11.19938,9.9993 -25.02584,9.9993c-13.82644,0 -25.02589,-4.47482 -25.02589,-9.9993l50.05173,0z" id="svg_34" stroke="null"/>
       <path fill="#ffffff" stroke-width="99" fill-opacity="0.8" d="m143.39185,632.35497l9.38471,-79.30479l15.64119,0l25.02588,79.30479l-50.05178,0z" id="svg_35" stroke="null"/>
      </g>
     </g>
    </g>
   </g>
   <ellipse stroke="null" fill="#868f98" stroke-width="99" cx="161.10186" cy="552.97998" id="svg_40" rx="12.25042" ry="2.97998"/>
  </g>
  <g id="svg_55">
   <rect stroke="null" fill="#868f98" stroke-width="99" x="248.85145" y="803.11336" width="3.30781" height="78.45813" id="svg_42"/>
   <path stroke="null" id="svg_43" d="m261.0823,807.34829c-5.54721,0 -10.04046,-1.58414 -10.04046,-3.53987c0,-1.95573 4.49324,-3.53987 10.04046,-3.53987c5.54721,0 10.04046,1.58414 10.04046,3.53987c0,1.95573 -4.49324,3.53987 -10.04046,3.53987z" opacity="undefined" stroke-width="99" fill="#f9f9c2"/>
   <g id="svg_53">
    <g id="svg_52">
     <title id="svg_44">Layer 1</title>
     <g id="svg_51">
      <g id="svg_50" stroke="null">
       <ellipse fill="#ffffff" stroke-width="99" cx="268.18858" cy="881.82774" id="svg_45" rx="25.0259" ry="9.6545" fill-opacity="0.8" stroke="null"/>
       <path fill="#ffffff" fill-opacity="0.8" stroke-width="99" opacity="undefined" d="m293.05172,881.999c0,5.52448 -11.19938,9.9993 -25.02584,9.9993c-13.82644,0 -25.02589,-4.47482 -25.02589,-9.9993l50.05173,0z" id="svg_48" stroke="null"/>
       <path fill="#ffffff" stroke-width="99" fill-opacity="0.8" d="m243.39185,882.35495l9.38471,-79.30479l15.64119,0l25.02588,79.30479l-50.05178,0z" id="svg_49" stroke="null"/>
      </g>
     </g>
    </g>
   </g>
   <ellipse stroke="null" fill="#868f98" stroke-width="99" cx="261.10186" cy="802.97996" id="svg_54" rx="12.25042" ry="2.97998"/>
  </g>
  <g id="svg_64">
   <rect stroke="null" fill="#868f98" stroke-width="99" x="982.62772" y="53.11339" width="3.30781" height="78.45813" id="svg_138"/>
   <path stroke="null" id="svg_139" d="m973.72456,57.34832c-5.54722,0 -10.04046,-1.58414 -10.04046,-3.53987c0,-1.95573 4.49324,-3.53987 10.04046,-3.53987c5.54721,0 10.04045,1.58414 10.04045,3.53987c0,1.95573 -4.49324,3.53987 -10.04045,3.53987z" opacity="undefined" stroke-width="99" fill="#f9f9c2"/>
   <g stroke="null" id="svg_14">
    <g stroke="null" id="svg_6">
     <title stroke="null">Layer 1</title>
     <g stroke="null" id="svg_7">
      <g stroke="null" id="svg_8">
       <ellipse stroke="null" fill-opacity="0.8" ry="9.6545" rx="24.31742" id="svg_13" cy="130.98977" cx="967.5401" stroke-width="99" fill="#ffffff"/>
       <path stroke="null" id="svg_10" d="m943.38084,131.16103c0,5.52448 10.88232,9.9993 24.31736,9.9993c13.43501,0 24.31741,-4.47482 24.31741,-9.9993l-48.63476,0l-0.00001,0z" opacity="undefined" stroke-width="99" fill-opacity="0.8" fill="#ffffff"/>
       <path stroke="null" id="svg_9" d="m991.63483,131.51698l-9.11903,-79.30479l-15.19839,0l-24.3174,79.30479l48.63481,0l0.00001,0z" fill-opacity="0.8" stroke-width="99" fill="#ffffff"/>
      </g>
     </g>
    </g>
   </g>
   <ellipse stroke="null" fill="#868f98" stroke-width="99" cx="973.74412" cy="52.97998" id="svg_140" rx="12.25042" ry="2.97998"/>
  </g>
  <g id="svg_76">
   <rect stroke="null" fill="#868f98" stroke-width="99" x="882.62772" y="303.1134" width="3.30781" height="78.45813" id="svg_65"/>
   <path stroke="null" id="svg_66" d="m873.72456,307.34833c-5.54722,0 -10.04046,-1.58414 -10.04046,-3.53987c0,-1.95573 4.49324,-3.53987 10.04046,-3.53987c5.54721,0 10.04045,1.58414 10.04045,3.53987c0,1.95573 -4.49324,3.53987 -10.04045,3.53987z" opacity="undefined" stroke-width="99" fill="#f9f9c2"/>
   <g stroke="null" id="svg_74">
    <g stroke="null" id="svg_73">
     <title stroke="null" id="svg_67">Layer 1</title>
     <g stroke="null" id="svg_72">
      <g stroke="null" id="svg_71">
       <ellipse stroke="null" fill-opacity="0.8" ry="9.6545" rx="24.31742" id="svg_68" cy="380.98978" cx="867.5401" stroke-width="99" fill="#ffffff"/>
       <path stroke="null" id="svg_69" d="m843.38084,381.16104c0,5.52448 10.88232,9.9993 24.31736,9.9993c13.43501,0 24.31741,-4.47482 24.31741,-9.9993l-48.63476,0l-0.00001,0z" opacity="undefined" stroke-width="99" fill-opacity="0.8" fill="#ffffff"/>
       <path stroke="null" id="svg_70" d="m891.63483,381.51699l-9.11903,-79.30479l-15.19839,0l-24.3174,79.30479l48.63481,0l0.00001,0z" fill-opacity="0.8" stroke-width="99" fill="#ffffff"/>
      </g>
     </g>
    </g>
   </g>
   <ellipse stroke="null" fill="#868f98" stroke-width="99" cx="873.74412" cy="302.97999" id="svg_75" rx="12.25042" ry="2.97998"/>
  </g>
  <g id="svg_88">
   <rect stroke="null" fill="#868f98" stroke-width="99" x="982.62769" y="553.11341" width="3.30781" height="78.45813" id="svg_77"/>
   <path stroke="null" id="svg_78" d="m973.72452,557.34833c-5.54722,0 -10.04046,-1.58414 -10.04046,-3.53987c0,-1.95573 4.49324,-3.53987 10.04046,-3.53987c5.54721,0 10.04045,1.58414 10.04045,3.53987c0,1.95573 -4.49324,3.53987 -10.04045,3.53987z" opacity="undefined" stroke-width="99" fill="#f9f9c2"/>
   <g stroke="null" id="svg_86">
    <g stroke="null" id="svg_85">
     <title stroke="null" id="svg_79">Layer 1</title>
     <g stroke="null" id="svg_84">
      <g stroke="null" id="svg_83">
       <ellipse stroke="null" fill-opacity="0.8" ry="9.6545" rx="24.31742" id="svg_80" cy="630.98979" cx="967.54007" stroke-width="99" fill="#ffffff"/>
       <path stroke="null" id="svg_81" d="m943.3808,631.16104c0,5.52448 10.88232,9.9993 24.31736,9.9993c13.43501,0 24.31741,-4.47482 24.31741,-9.9993l-48.63476,0l-0.00001,0z" opacity="undefined" stroke-width="99" fill-opacity="0.8" fill="#ffffff"/>
       <path stroke="null" id="svg_82" d="m991.63479,631.51699l-9.11903,-79.30479l-15.19839,0l-24.3174,79.30479l48.63481,0l0.00001,0z" fill-opacity="0.8" stroke-width="99" fill="#ffffff"/>
      </g>
     </g>
    </g>
   </g>
   <ellipse stroke="null" fill="#868f98" stroke-width="99" cx="973.74409" cy="552.98" id="svg_87" rx="12.25042" ry="2.97998"/>
  </g>
  <g id="svg_100">
   <rect stroke="null" fill="#868f98" stroke-width="99" x="882.62772" y="803.11338" width="3.30781" height="78.45813" id="svg_89"/>
   <path stroke="null" id="svg_90" d="m873.72455,807.34831c-5.54722,0 -10.04046,-1.58414 -10.04046,-3.53987c0,-1.95573 4.49324,-3.53987 10.04046,-3.53987c5.54721,0 10.04045,1.58414 10.04045,3.53987c0,1.95573 -4.49324,3.53987 -10.04045,3.53987z" opacity="undefined" stroke-width="99" fill="#f9f9c2"/>
   <g stroke="null" id="svg_98">
    <g stroke="null" id="svg_97">
     <title stroke="null" id="svg_91">Layer 1</title>
     <g stroke="null" id="svg_96">
      <g stroke="null" id="svg_95">
       <ellipse stroke="null" fill-opacity="0.8" ry="9.6545" rx="24.31742" id="svg_92" cy="880.98976" cx="867.5401" stroke-width="99" fill="#ffffff"/>
       <path stroke="null" id="svg_93" d="m843.38083,881.16102c0,5.52448 10.88232,9.9993 24.31736,9.9993c13.43501,0 24.31741,-4.47482 24.31741,-9.9993l-48.63476,0l-0.00001,0z" opacity="undefined" stroke-width="99" fill-opacity="0.8" fill="#ffffff"/>
       <path stroke="null" id="svg_94" d="m891.63482,881.51697l-9.11903,-79.30479l-15.19839,0l-24.3174,79.30479l48.63481,0l0.00001,0z" fill-opacity="0.8" stroke-width="99" fill="#ffffff"/>
      </g>
     </g>
    </g>
   </g>
   <ellipse stroke="null" fill="#868f98" stroke-width="99" cx="873.74412" cy="802.97997" id="svg_99" rx="12.25042" ry="2.97998"/>
  </g>
 </g>

</svg>